<svg version="1" xmlns="http://www.w3.org/2000/svg" width="933.333" height="933.333" viewBox="0 0 700.000000 700.000000"><path d="M221.5 44.5c-10.4 1.6-15.4 3-23.3 6.6-6 2.8-14.1 7.8-16.8 10.4-.6.5-2.8 2.6-5 4.5-10.5 9.5-19.4 25.8-22.1 40.1-1.3 7.5-.8 23.9 1 30.9 7.8 29.6 33.6 50.9 62.1 51.3 18.4.2 33.3-5.8 46.3-18.9 22-22.1 22.2-56.9.5-78-18.3-17.9-46.1-17.8-63.8.2-7.9 8-10.7 14.6-10.8 25.9-.1 9.1 2.5 16.2 8.3 22.8 8.8 9.9 27.3 12.2 32.6 4 3.3-5 2.6-10.7-1.7-14.5-2.6-2.2-5.1-2.9-9.7-2.6-3 .3-3.8-.2-5.8-3.1-2.8-4.1-2.9-8-.4-12.9 2.4-4.7 4.5-6.6 10.1-9.1 7.8-3.5 15.8-2.5 23.5 3.1 10.8 7.8 14.8 23.3 9.5 37.2-3.7 9.6-15.3 19.7-26.7 23.1-8.6 2.5-22.6.4-31.2-4.8-6-3.6-14.3-12.1-17-17.6-10.7-20.9-6.8-43.8 10.3-60.6 29-28.6 76.1-18.9 94.6 19.4 1.5 3.1 3.1 7.2 3.5 9.1.5 1.9 1 4.2 1.3 5 1.4 5.4.7 17.9-1.5 26.8-6.9 28.6-6.5 43.8 1.4 58.3 4.3 8 14.3 15.2 23.9 17.3 7.5 1.7 14.4-5.1 13-12.7-.7-3.9-2.9-6-11.6-11-7.2-4.2-9.3-8.3-9.4-18.6-.1-8.2.9-16.6 2.3-20.3.5-1.3.9-2.6.9-3.1 0-.4.9-4.2 1.8-8.5 2.4-10.4 2.4-28.3-.1-37.2-9.5-34.2-39.7-60.3-72.5-62.6-4.1-.3-7.9-.7-8.5-.8-.5-.2-4.6.3-9 .9zM432.1 55.2c-39.6 4.1-72 34-80.2 74.3-1.6 7.5-2 25-.8 32.4 1.3 8.6 6.2 22.9 10.1 29.4 3.5 6 9.9 14.3 16.4 21.2 12 12.8 19.4 25.2 21 35.3.7 4.2-.6 7.3-7 17.2-4.5 6.8-4.7 10.8-.8 15 6 6.6 12.7 5.4 19.4-3.5 9.5-12.7 12.1-22.4 9.3-35.6-2.9-13.6-10.4-26.2-26-43.4-12.2-13.5-16-20.1-19.5-33.6-2.2-8.4-2-24.9.4-33.8 6.6-24.3 22.7-42.1 44.8-49.5 8.6-2.9 12.5-3.6 21.8-3.7 21.1-.3 41.5 10.1 52.5 26.6 21 31.6 5.2 74.6-30 81.8-11.5 2.3-20.4 1.3-30.4-3.5-7.8-3.7-15.5-11.2-18.7-18.3-2-4.4-2.7-6.7-3.8-14.4-.5-2.8 1.5-12.4 3.4-16.4 3.4-7.2 10.2-13.3 17.4-15.7 5.6-1.8 16.2-.8 20.9 2 4.2 2.5 8.7 9.3 8.5 13-.2 6.1-1.7 8.7-6.4 10.5-10.8 4.1-9.5 18.9 1.9 21.1 7 1.3 18.8-6.9 23.4-16.4 2.4-4.9 2.8-6.9 2.8-14.2 0-7.4-.4-9.3-3.2-15.2-13.1-27.7-52-32.1-75.3-8.6-20.8 21.1-19.9 57.6 2 79.8 12.5 12.6 27.3 18.9 46 19.4 22.6.7 45.7-10.7 58.4-28.8 5.1-7.2 8.7-14.2 10.9-21.1 2.6-7.9 2.9-10.3 3.2-22 .4-11.7-1.2-21.1-5.3-31-13.5-33.4-49.4-54.1-87.1-50.3zM313.8 306.5c-.2.2-7 .6-15.3.9-8.2.4-16.6.9-18.5 1.1-1.9.2-7.2.6-11.7 1-4.6.3-9.1.8-10 .9-1 .2-4.7.7-8.3 1.1-10.4 1.2-12.3 1.4-16.5 2-6 1-8.7 1.4-11.5 2-1.4.3-5.2 1-8.5 1.6-20.6 3.7-50.6 12.6-64.1 19.1C134 343.5 121.8 353 116 362c-5.1 8-6.6 14.3-6.4 27.2.1 10.7 1.2 29.2 1.9 32.8.2.9.6 4.1 1 7.1C118.3 477 138.3 530 164.9 568c11.3 16.1 30.7 38 42.6 48 19.7 16.5 37.8 27.8 58.8 36.4 15.5 6.5 26.8 9.6 46.7 13.1 6.1 1.1 40.2 1.4 47.5.5 12.7-1.7 14.8-2.1 24.4-4.6 28.2-7.3 56.6-21.7 80-40.7 8.7-7 25.2-23.3 32.7-32.2 28.6-34.2 49-75.1 60.8-122.1 1.9-7.6 3.7-15.3 4-16.9.3-1.7 1.2-7.1 2-12 4-23.7 5.4-55.3 2.9-63.7-2.2-7.6-4.5-11.7-9.9-17.6-13.3-14.9-38.4-26.6-76.4-35.6-8.8-2.1-14.4-3.2-30-6.1-3-.5-9.6-1.5-14.9-2.1-3-.3-6.1-.7-7-.9-.9-.1-4.7-.6-8.6-.9-3.8-.4-8.6-.9-10.6-1.1-2-.3-7.4-.7-12-1-4.6-.3-11.1-.8-14.4-1.1-5.7-.6-69.2-1.4-69.7-.9zm70.7 22.9c8.7.6 27.7 2.3 34.5 3.1 1.9.2 6 .7 9 1 3 .4 6.6.8 8 1 1.4.2 4.5.7 7 1 28.1 3.8 66.2 14.7 82 23.3 8.8 4.9 19.3 13.4 17.9 14.6-2.2 1.9-13.3 7.1-20.5 9.5-8.1 2.8-29.4 8.3-36.9 9.5-1.6.3-7.3 1.2-12.5 2.1-5.2.9-10.8 1.8-12.3 2.1-2.8.4-2.8.4-2.1-2.8 2.5-11.4-3.5-21.6-16-27.4-8.8-4.1-18.6-5.7-30.5-5.1-22.7 1-38.6 11-39.9 25-.5 5.2 1.6 12 4.8 15.4l1.9 2.1-6.2.4c-17.4.9-80.1-.2-97.7-1.7-2.5-.2-8.3-.7-13-1-10-.7-15-1.2-30-3-45.1-5.4-82.9-15.2-94.6-24.4l-2.4-1.9 5.2-4.7c6.5-5.7 23.6-14.2 38.3-19.1 10.4-3.4 34.7-9.4 44.5-10.9 2.5-.4 5.2-.8 6-1 .8-.1 3.7-.6 6.3-.9 2.7-.4 5.6-.9 6.5-1.1 1-.1 4.6-.6 8.2-1 3.6-.3 7.6-.8 9-1 6.7-1 20.5-2.1 38-3.1 6.9-.4 12.6-.8 12.8-.9.4-.4 67.6.4 74.7.9zm42 54.7c6.5 1.7 9.6 3.1 9.2 4.3-.6 1.9-9.7 4.6-16.8 5-9.9.6-23.9-2.7-23.9-5.6 0-.6 6.9-3.1 11.5-4.1 3.9-.9 16.1-.7 20 .4zM135 398.5c10 5.2 42.5 14.1 61.5 16.9 2.2.4 6.5 1.1 9.5 1.6s7.5 1.2 10 1.5c2.5.3 5.6.8 7 1 2.6.5 8.7 1.2 18 2 3 .3 6.9.8 8.5 1 1.7.2 7.1.7 12 1 5 .4 11 .8 13.4 1 29.6 2.4 89.2 2.4 127.1 0 9.5-.6 22.7-1.6 26-2 1.9-.2 6-.7 9-1 3-.3 7.1-.8 9-1 1.9-.3 5.3-.7 7.5-1 22.7-2.8 45.6-7.1 63.1-11.9 9.3-2.5 20.1-6.2 26.6-9 3.6-1.5 3.7-1.5 3.3.7-.2 1.2-.6 6.2-1 11.2-.7 9.3-.9 11.3-2.1 20-.7 5.7-.5 4.6-3.3 18.2-15.2 73.8-55.6 136-110.5 170-22.2 13.8-47.4 22.6-74.1 25.8-5.9.8-26.5.8-31.5.1-1.9-.3-5.7-.8-8.4-1.1-43-5.2-89.4-33.2-121.7-73.5-16-20-25.7-36.2-38.6-64.8-7.2-16.1-16.7-49.5-19.8-69.7-1.9-12.9-2.6-18.9-3.1-27-.3-5-.7-9.6-.9-10.3-.6-1.6 0-1.5 3.5.3z"/><path d="M270.5 340.2c-27 5.8-38.2 25.7-23 41.2 3.7 3.7 13.5 9.1 18.6 10.2 12.4 2.6 27.4 2.6 37.4-.2 4.6-1.3 14.2-6.6 17.4-9.5 12-11.4 8.1-28.4-8.5-36.7-10.6-5.3-29.6-7.6-41.9-5zm29.8 23.6c2.7 1.2 4.6 2.6 4.2 3.2-1 1.7-10.7 4.2-17.6 4.5-7.6.3-14.8-.8-20.2-3.1-3.5-1.6-3.6-1.8-1.8-3.1 6.7-4.6 26.4-5.5 35.4-1.5zM496.8 451.7c-2.7 1.7-3.6 3.6-9.4 19.3-4.7 12.9-12.6 27.9-22.2 42.3-4.9 7.4-5.7 10.6-3.4 15.2 1.7 3.5 2.6 4.2 7.1 5.5 6.3 1.7 9.2-.5 17.8-13.7 12.5-19.2 28.5-55.5 26.7-60.9-2.7-8.6-9.9-11.8-16.6-7.7zM442.9 537.7c-6.1 3.7-7 11.6-2 16.6 2.5 2.5 3.8 3 7.7 3 4 0 5.1-.4 7.6-3.1 6.4-7.3 1.4-18.3-8.4-18.2-1.2 0-3.5.8-4.9 1.7z"/></svg>